<svg xmlns="http://www.w3.org/2000/svg" xmlns:xlink="http://www.w3.org/1999/xlink" width="150" zoomAndPan="magnify" viewBox="0 0 112.5 30.000001" height="40" preserveAspectRatio="xMidYMid meet" version="1.0"><defs><g/><clipPath id="d76ce688e8"><path d="M 4.847656 1.789062 L 108.371094 1.789062 L 108.371094 26.574219 L 4.847656 26.574219 Z M 4.847656 1.789062 " clip-rule="nonzero"/></clipPath><clipPath id="5d66528ecd"><path d="M 23.625 21.402344 L 88.511719 21.402344 L 88.511719 27.234375 L 23.625 27.234375 Z M 23.625 21.402344 " clip-rule="nonzero"/></clipPath></defs><g clip-path="url(#d76ce688e8)"><path stroke-linecap="butt" transform="matrix(0.731608, 0, 0, 0.73888, 4.847326, 1.788286)" fill="none" stroke-linejoin="miter" d="M 0.000450933 0.00105081 L 141.501617 0.00105081 L 141.501617 33.545297 L 0.000450933 33.545297 L 0.000450933 0.00105081 " stroke="#060606" stroke-width="2" stroke-opacity="1" stroke-miterlimit="4"/></g><g fill="#060606" fill-opacity="1"><g transform="translate(19.245672, 20.408564)"><g><path d="M 8.796875 -11.5 C 8.710938 -10.726562 8.671875 -10.035156 8.671875 -9.421875 C 8.671875 -8.878906 8.6875 -8.4375 8.71875 -8.09375 L 8.359375 -8.09375 C 8.265625 -8.925781 8.148438 -9.546875 8.015625 -9.953125 C 7.890625 -10.359375 7.664062 -10.65625 7.34375 -10.84375 C 7.019531 -11.03125 6.519531 -11.125 5.84375 -11.125 L 4.828125 -11.125 C 4.429688 -11.125 4.144531 -11.09375 3.96875 -11.03125 C 3.789062 -10.976562 3.671875 -10.859375 3.609375 -10.671875 C 3.546875 -10.492188 3.515625 -10.195312 3.515625 -9.78125 L 3.515625 -5.78125 L 4.703125 -5.78125 C 5.078125 -5.78125 5.363281 -5.867188 5.5625 -6.046875 C 5.769531 -6.234375 5.910156 -6.445312 5.984375 -6.6875 C 6.054688 -6.925781 6.113281 -7.234375 6.15625 -7.609375 L 6.203125 -7.9375 L 6.578125 -7.9375 C 6.546875 -7.476562 6.53125 -6.96875 6.53125 -6.40625 L 6.53125 -5.625 C 6.53125 -5.070312 6.5625 -4.300781 6.625 -3.3125 L 6.25 -3.3125 C 6.238281 -3.382812 6.207031 -3.644531 6.15625 -4.09375 C 6.101562 -4.550781 5.953125 -4.890625 5.703125 -5.109375 C 5.460938 -5.335938 5.128906 -5.453125 4.703125 -5.453125 L 3.515625 -5.453125 L 3.515625 -1.71875 C 3.515625 -1.3125 3.554688 -1.015625 3.640625 -0.828125 C 3.722656 -0.640625 3.875 -0.515625 4.09375 -0.453125 C 4.3125 -0.390625 4.664062 -0.347656 5.15625 -0.328125 L 5.15625 0 C 4.59375 -0.03125 3.796875 -0.046875 2.765625 -0.046875 C 1.828125 -0.046875 1.132812 -0.03125 0.6875 0 L 0.6875 -0.328125 C 1.070312 -0.347656 1.351562 -0.390625 1.53125 -0.453125 C 1.707031 -0.515625 1.828125 -0.640625 1.890625 -0.828125 C 1.960938 -1.015625 2 -1.3125 2 -1.71875 L 2 -9.78125 C 2 -10.195312 1.960938 -10.492188 1.890625 -10.671875 C 1.828125 -10.859375 1.707031 -10.984375 1.53125 -11.046875 C 1.351562 -11.109375 1.070312 -11.15625 0.6875 -11.1875 L 0.6875 -11.5 C 1.75 -11.46875 3.316406 -11.453125 5.390625 -11.453125 C 6.984375 -11.453125 8.117188 -11.46875 8.796875 -11.5 Z M 8.796875 -11.5 "/></g></g></g><g fill="#060606" fill-opacity="1"><g transform="translate(28.004931, 20.408564)"><g><path d="M 3.0625 -1.515625 C 3.0625 -1.066406 3.148438 -0.757812 3.328125 -0.59375 C 3.515625 -0.425781 3.835938 -0.34375 4.296875 -0.34375 L 4.296875 0 C 3.296875 -0.0390625 2.640625 -0.0625 2.328125 -0.0625 C 2.015625 -0.0625 1.359375 -0.0390625 0.359375 0 L 0.359375 -0.34375 C 0.816406 -0.34375 1.132812 -0.425781 1.3125 -0.59375 C 1.5 -0.757812 1.59375 -1.066406 1.59375 -1.515625 L 1.59375 -10.796875 C 1.59375 -11.285156 1.5 -11.644531 1.3125 -11.875 C 1.132812 -12.101562 0.816406 -12.21875 0.359375 -12.21875 L 0.359375 -12.5625 C 0.691406 -12.53125 1.023438 -12.515625 1.359375 -12.515625 C 2.046875 -12.515625 2.613281 -12.585938 3.0625 -12.734375 Z M 3.0625 -1.515625 "/></g></g></g><g fill="#060606" fill-opacity="1"><g transform="translate(32.165052, 20.408564)"><g><path d="M 2.65625 0.109375 C 1.96875 0.109375 1.457031 -0.0546875 1.125 -0.390625 C 0.800781 -0.734375 0.640625 -1.207031 0.640625 -1.8125 C 0.640625 -2.300781 0.769531 -2.703125 1.03125 -3.015625 C 1.300781 -3.335938 1.613281 -3.585938 1.96875 -3.765625 C 2.332031 -3.953125 2.8125 -4.148438 3.40625 -4.359375 C 4.019531 -4.554688 4.472656 -4.742188 4.765625 -4.921875 C 5.054688 -5.097656 5.203125 -5.332031 5.203125 -5.625 L 5.203125 -6.625 C 5.203125 -7.257812 5.066406 -7.691406 4.796875 -7.921875 C 4.535156 -8.148438 4.164062 -8.265625 3.6875 -8.265625 C 2.925781 -8.265625 2.390625 -8.070312 2.078125 -7.6875 C 2.296875 -7.632812 2.476562 -7.519531 2.625 -7.34375 C 2.769531 -7.164062 2.84375 -6.945312 2.84375 -6.6875 C 2.84375 -6.414062 2.753906 -6.203125 2.578125 -6.046875 C 2.410156 -5.890625 2.191406 -5.8125 1.921875 -5.8125 C 1.617188 -5.8125 1.390625 -5.90625 1.234375 -6.09375 C 1.078125 -6.289062 1 -6.523438 1 -6.796875 C 1 -7.054688 1.0625 -7.269531 1.1875 -7.4375 C 1.3125 -7.613281 1.5 -7.789062 1.75 -7.96875 C 2.007812 -8.144531 2.335938 -8.289062 2.734375 -8.40625 C 3.140625 -8.53125 3.582031 -8.59375 4.0625 -8.59375 C 4.90625 -8.59375 5.546875 -8.394531 5.984375 -8 C 6.253906 -7.75 6.429688 -7.445312 6.515625 -7.09375 C 6.609375 -6.738281 6.65625 -6.273438 6.65625 -5.703125 L 6.65625 -1.1875 C 6.65625 -0.914062 6.691406 -0.71875 6.765625 -0.59375 C 6.847656 -0.476562 6.984375 -0.421875 7.171875 -0.421875 C 7.296875 -0.421875 7.414062 -0.445312 7.53125 -0.5 C 7.644531 -0.5625 7.765625 -0.648438 7.890625 -0.765625 L 8.078125 -0.484375 C 7.796875 -0.265625 7.550781 -0.109375 7.34375 -0.015625 C 7.144531 0.0664062 6.894531 0.109375 6.59375 0.109375 C 6.070312 0.109375 5.707031 -0.0195312 5.5 -0.28125 C 5.300781 -0.539062 5.203125 -0.890625 5.203125 -1.328125 C 4.878906 -0.785156 4.503906 -0.410156 4.078125 -0.203125 C 3.648438 0.00390625 3.175781 0.109375 2.65625 0.109375 Z M 3.359375 -0.53125 C 4.078125 -0.53125 4.691406 -0.941406 5.203125 -1.765625 L 5.203125 -4.953125 C 5.097656 -4.804688 4.957031 -4.679688 4.78125 -4.578125 C 4.613281 -4.484375 4.351562 -4.351562 4 -4.1875 C 3.582031 -4.019531 3.242188 -3.859375 2.984375 -3.703125 C 2.734375 -3.546875 2.515625 -3.332031 2.328125 -3.0625 C 2.148438 -2.789062 2.0625 -2.441406 2.0625 -2.015625 C 2.0625 -1.523438 2.179688 -1.15625 2.421875 -0.90625 C 2.660156 -0.65625 2.972656 -0.53125 3.359375 -0.53125 Z M 3.359375 -0.53125 "/></g></g></g><g fill="#060606" fill-opacity="1"><g transform="translate(39.770457, 20.408564)"><g><path d="M 3.375 -8.59375 C 3.769531 -8.59375 4.117188 -8.53125 4.421875 -8.40625 C 4.722656 -8.289062 4.96875 -8.15625 5.15625 -8 C 5.269531 -7.90625 5.363281 -7.859375 5.4375 -7.859375 C 5.632812 -7.859375 5.753906 -8.097656 5.796875 -8.578125 L 6.171875 -8.578125 C 6.128906 -8.046875 6.109375 -7.125 6.109375 -5.8125 L 5.734375 -5.8125 C 5.617188 -6.53125 5.390625 -7.117188 5.046875 -7.578125 C 4.703125 -8.046875 4.195312 -8.28125 3.53125 -8.28125 C 3.132812 -8.28125 2.8125 -8.171875 2.5625 -7.953125 C 2.3125 -7.734375 2.1875 -7.425781 2.1875 -7.03125 C 2.1875 -6.65625 2.316406 -6.335938 2.578125 -6.078125 C 2.835938 -5.828125 3.253906 -5.523438 3.828125 -5.171875 C 3.929688 -5.117188 4.082031 -5.023438 4.28125 -4.890625 C 4.769531 -4.566406 5.164062 -4.28125 5.46875 -4.03125 C 5.78125 -3.78125 6.03125 -3.492188 6.21875 -3.171875 C 6.40625 -2.847656 6.5 -2.472656 6.5 -2.046875 C 6.5 -1.328125 6.226562 -0.765625 5.6875 -0.359375 C 5.15625 0.0351562 4.5 0.234375 3.71875 0.234375 C 3.226562 0.234375 2.800781 0.15625 2.4375 0 C 2.195312 -0.113281 1.972656 -0.257812 1.765625 -0.4375 C 1.722656 -0.476562 1.675781 -0.5 1.625 -0.5 C 1.550781 -0.5 1.484375 -0.441406 1.421875 -0.328125 C 1.359375 -0.222656 1.3125 -0.078125 1.28125 0.109375 L 0.90625 0.109375 C 0.945312 -0.503906 0.96875 -1.585938 0.96875 -3.140625 L 1.34375 -3.140625 C 1.46875 -2.117188 1.6875 -1.351562 2 -0.84375 C 2.3125 -0.34375 2.847656 -0.09375 3.609375 -0.09375 C 3.984375 -0.09375 4.316406 -0.21875 4.609375 -0.46875 C 4.898438 -0.71875 5.046875 -1.109375 5.046875 -1.640625 C 5.046875 -2.066406 4.898438 -2.425781 4.609375 -2.71875 C 4.328125 -3.007812 3.863281 -3.359375 3.21875 -3.765625 C 2.6875 -4.109375 2.273438 -4.382812 1.984375 -4.59375 C 1.703125 -4.8125 1.460938 -5.078125 1.265625 -5.390625 C 1.066406 -5.703125 0.96875 -6.070312 0.96875 -6.5 C 0.96875 -7.1875 1.195312 -7.707031 1.65625 -8.0625 C 2.113281 -8.414062 2.6875 -8.59375 3.375 -8.59375 Z M 3.375 -8.59375 "/></g></g></g><g fill="#060606" fill-opacity="1"><g transform="translate(46.547052, 20.408564)"><g><path d="M 3.015625 -6.640625 C 3.285156 -7.328125 3.660156 -7.820312 4.140625 -8.125 C 4.628906 -8.4375 5.175781 -8.59375 5.78125 -8.59375 C 6.539062 -8.59375 7.113281 -8.390625 7.5 -7.984375 C 7.707031 -7.765625 7.851562 -7.488281 7.9375 -7.15625 C 8.03125 -6.832031 8.078125 -6.394531 8.078125 -5.84375 L 8.078125 -1.515625 C 8.078125 -1.066406 8.164062 -0.757812 8.34375 -0.59375 C 8.53125 -0.425781 8.851562 -0.34375 9.3125 -0.34375 L 9.3125 0 C 8.3125 -0.0390625 7.660156 -0.0625 7.359375 -0.0625 C 7.054688 -0.0625 6.453125 -0.0390625 5.546875 0 L 5.546875 -0.34375 C 5.941406 -0.34375 6.21875 -0.425781 6.375 -0.59375 C 6.53125 -0.757812 6.609375 -1.066406 6.609375 -1.515625 L 6.609375 -6.203125 C 6.609375 -6.816406 6.519531 -7.28125 6.34375 -7.59375 C 6.175781 -7.914062 5.828125 -8.078125 5.296875 -8.078125 C 4.847656 -8.078125 4.453125 -7.953125 4.109375 -7.703125 C 3.773438 -7.453125 3.507812 -7.101562 3.3125 -6.65625 C 3.113281 -6.207031 3.015625 -5.703125 3.015625 -5.140625 L 3.015625 -1.515625 C 3.015625 -1.066406 3.09375 -0.757812 3.25 -0.59375 C 3.414062 -0.425781 3.695312 -0.34375 4.09375 -0.34375 L 4.09375 0 C 3.1875 -0.0390625 2.582031 -0.0625 2.28125 -0.0625 C 1.96875 -0.0625 1.316406 -0.0390625 0.328125 0 L 0.328125 -0.34375 C 0.773438 -0.34375 1.09375 -0.425781 1.28125 -0.59375 C 1.46875 -0.757812 1.5625 -1.066406 1.5625 -1.515625 L 1.5625 -10.78125 C 1.5625 -11.269531 1.46875 -11.628906 1.28125 -11.859375 C 1.09375 -12.085938 0.773438 -12.203125 0.328125 -12.203125 L 0.328125 -12.546875 C 0.671875 -12.515625 1.003906 -12.5 1.328125 -12.5 C 2.015625 -12.5 2.578125 -12.570312 3.015625 -12.71875 Z M 3.015625 -6.640625 "/></g></g></g><g fill="#060606" fill-opacity="1"><g transform="translate(55.615077, 20.408564)"><g><path d="M 4.53125 -8.59375 C 5.257812 -8.59375 5.890625 -8.421875 6.421875 -8.078125 C 6.929688 -7.742188 7.1875 -7.328125 7.1875 -6.828125 C 7.1875 -6.546875 7.101562 -6.320312 6.9375 -6.15625 C 6.769531 -6 6.566406 -5.921875 6.328125 -5.921875 C 6.078125 -5.921875 5.863281 -5.992188 5.6875 -6.140625 C 5.507812 -6.285156 5.421875 -6.484375 5.421875 -6.734375 C 5.421875 -6.953125 5.484375 -7.140625 5.609375 -7.296875 C 5.742188 -7.460938 5.910156 -7.570312 6.109375 -7.625 C 6.003906 -7.8125 5.8125 -7.96875 5.53125 -8.09375 C 5.257812 -8.226562 4.960938 -8.296875 4.640625 -8.296875 C 4.242188 -8.296875 3.867188 -8.171875 3.515625 -7.921875 C 3.171875 -7.671875 2.882812 -7.25 2.65625 -6.65625 C 2.4375 -6.0625 2.328125 -5.285156 2.328125 -4.328125 C 2.328125 -2.984375 2.539062 -2.003906 2.96875 -1.390625 C 3.40625 -0.773438 3.96875 -0.46875 4.65625 -0.46875 C 5.125 -0.46875 5.566406 -0.601562 5.984375 -0.875 C 6.398438 -1.144531 6.742188 -1.566406 7.015625 -2.140625 L 7.328125 -2.03125 C 7.140625 -1.414062 6.796875 -0.882812 6.296875 -0.4375 C 5.796875 0.0078125 5.144531 0.234375 4.34375 0.234375 C 3.664062 0.234375 3.050781 0.0625 2.5 -0.28125 C 1.957031 -0.632812 1.53125 -1.140625 1.21875 -1.796875 C 0.90625 -2.453125 0.75 -3.210938 0.75 -4.078125 C 0.75 -4.953125 0.90625 -5.726562 1.21875 -6.40625 C 1.539062 -7.09375 1.988281 -7.628906 2.5625 -8.015625 C 3.132812 -8.398438 3.789062 -8.59375 4.53125 -8.59375 Z M 4.53125 -8.59375 "/></g></g></g><g fill="#060606" fill-opacity="1"><g transform="translate(63.025467, 20.408564)"><g><path d="M 2.65625 0.109375 C 1.96875 0.109375 1.457031 -0.0546875 1.125 -0.390625 C 0.800781 -0.734375 0.640625 -1.207031 0.640625 -1.8125 C 0.640625 -2.300781 0.769531 -2.703125 1.03125 -3.015625 C 1.300781 -3.335938 1.613281 -3.585938 1.96875 -3.765625 C 2.332031 -3.953125 2.8125 -4.148438 3.40625 -4.359375 C 4.019531 -4.554688 4.472656 -4.742188 4.765625 -4.921875 C 5.054688 -5.097656 5.203125 -5.332031 5.203125 -5.625 L 5.203125 -6.625 C 5.203125 -7.257812 5.066406 -7.691406 4.796875 -7.921875 C 4.535156 -8.148438 4.164062 -8.265625 3.6875 -8.265625 C 2.925781 -8.265625 2.390625 -8.070312 2.078125 -7.6875 C 2.296875 -7.632812 2.476562 -7.519531 2.625 -7.34375 C 2.769531 -7.164062 2.84375 -6.945312 2.84375 -6.6875 C 2.84375 -6.414062 2.753906 -6.203125 2.578125 -6.046875 C 2.410156 -5.890625 2.191406 -5.8125 1.921875 -5.8125 C 1.617188 -5.8125 1.390625 -5.90625 1.234375 -6.09375 C 1.078125 -6.289062 1 -6.523438 1 -6.796875 C 1 -7.054688 1.0625 -7.269531 1.1875 -7.4375 C 1.3125 -7.613281 1.5 -7.789062 1.75 -7.96875 C 2.007812 -8.144531 2.335938 -8.289062 2.734375 -8.40625 C 3.140625 -8.53125 3.582031 -8.59375 4.0625 -8.59375 C 4.90625 -8.59375 5.546875 -8.394531 5.984375 -8 C 6.253906 -7.75 6.429688 -7.445312 6.515625 -7.09375 C 6.609375 -6.738281 6.65625 -6.273438 6.65625 -5.703125 L 6.65625 -1.1875 C 6.65625 -0.914062 6.691406 -0.71875 6.765625 -0.59375 C 6.847656 -0.476562 6.984375 -0.421875 7.171875 -0.421875 C 7.296875 -0.421875 7.414062 -0.445312 7.53125 -0.5 C 7.644531 -0.5625 7.765625 -0.648438 7.890625 -0.765625 L 8.078125 -0.484375 C 7.796875 -0.265625 7.550781 -0.109375 7.34375 -0.015625 C 7.144531 0.0664062 6.894531 0.109375 6.59375 0.109375 C 6.070312 0.109375 5.707031 -0.0195312 5.5 -0.28125 C 5.300781 -0.539062 5.203125 -0.890625 5.203125 -1.328125 C 4.878906 -0.785156 4.503906 -0.410156 4.078125 -0.203125 C 3.648438 0.00390625 3.175781 0.109375 2.65625 0.109375 Z M 3.359375 -0.53125 C 4.078125 -0.53125 4.691406 -0.941406 5.203125 -1.765625 L 5.203125 -4.953125 C 5.097656 -4.804688 4.957031 -4.679688 4.78125 -4.578125 C 4.613281 -4.484375 4.351562 -4.351562 4 -4.1875 C 3.582031 -4.019531 3.242188 -3.859375 2.984375 -3.703125 C 2.734375 -3.546875 2.515625 -3.332031 2.328125 -3.0625 C 2.148438 -2.789062 2.0625 -2.441406 2.0625 -2.015625 C 2.0625 -1.523438 2.179688 -1.15625 2.421875 -0.90625 C 2.660156 -0.65625 2.972656 -0.53125 3.359375 -0.53125 Z M 3.359375 -0.53125 "/></g></g></g><g fill="#060606" fill-opacity="1"><g transform="translate(70.630871, 20.408564)"><g><path d="M 5.53125 -8.59375 C 5.957031 -8.59375 6.304688 -8.46875 6.578125 -8.21875 C 6.859375 -7.96875 7 -7.664062 7 -7.3125 C 7 -7.03125 6.914062 -6.785156 6.75 -6.578125 C 6.582031 -6.378906 6.359375 -6.28125 6.078125 -6.28125 C 5.835938 -6.28125 5.632812 -6.359375 5.46875 -6.515625 C 5.300781 -6.671875 5.21875 -6.878906 5.21875 -7.140625 C 5.21875 -7.492188 5.398438 -7.785156 5.765625 -8.015625 C 5.691406 -8.117188 5.578125 -8.171875 5.421875 -8.171875 C 5.003906 -8.171875 4.617188 -8.003906 4.265625 -7.671875 C 3.921875 -7.347656 3.648438 -6.945312 3.453125 -6.46875 C 3.265625 -5.988281 3.171875 -5.539062 3.171875 -5.125 L 3.171875 -1.671875 C 3.171875 -1.171875 3.3125 -0.820312 3.59375 -0.625 C 3.882812 -0.4375 4.316406 -0.34375 4.890625 -0.34375 L 4.890625 0 L 4.5 -0.015625 C 3.394531 -0.046875 2.691406 -0.0625 2.390625 -0.0625 C 2.109375 -0.0625 1.46875 -0.0390625 0.46875 0 L 0.46875 -0.34375 C 0.925781 -0.34375 1.242188 -0.425781 1.421875 -0.59375 C 1.609375 -0.757812 1.703125 -1.066406 1.703125 -1.515625 L 1.703125 -6.59375 C 1.703125 -7.09375 1.609375 -7.457031 1.421875 -7.6875 C 1.242188 -7.914062 0.925781 -8.03125 0.46875 -8.03125 L 0.46875 -8.375 C 0.8125 -8.332031 1.148438 -8.3125 1.484375 -8.3125 C 2.160156 -8.3125 2.722656 -8.390625 3.171875 -8.546875 L 3.171875 -6.515625 C 3.367188 -7.054688 3.679688 -7.535156 4.109375 -7.953125 C 4.535156 -8.378906 5.007812 -8.59375 5.53125 -8.59375 Z M 5.53125 -8.59375 "/></g></g></g><g fill="#060606" fill-opacity="1"><g transform="translate(77.37496, 20.408564)"><g><path d="M 7.859375 -1.765625 C 7.859375 -1.273438 7.953125 -0.914062 8.140625 -0.6875 C 8.328125 -0.457031 8.644531 -0.34375 9.09375 -0.34375 L 9.09375 0 C 8.757812 -0.03125 8.425781 -0.046875 8.09375 -0.046875 C 7.40625 -0.046875 6.84375 0.0234375 6.40625 0.171875 L 6.40625 -1.265625 C 6.207031 -0.773438 5.910156 -0.398438 5.515625 -0.140625 C 5.128906 0.109375 4.65625 0.234375 4.09375 0.234375 C 3.050781 0.234375 2.234375 -0.140625 1.640625 -0.890625 C 1.054688 -1.640625 0.769531 -2.734375 0.78125 -4.171875 C 0.78125 -5.117188 0.941406 -5.925781 1.265625 -6.59375 C 1.597656 -7.257812 2.039062 -7.757812 2.59375 -8.09375 C 3.15625 -8.425781 3.773438 -8.59375 4.453125 -8.59375 C 4.859375 -8.59375 5.234375 -8.515625 5.578125 -8.359375 C 5.921875 -8.203125 6.195312 -7.960938 6.40625 -7.640625 L 6.40625 -10.796875 C 6.40625 -11.285156 6.3125 -11.644531 6.125 -11.875 C 5.9375 -12.101562 5.617188 -12.21875 5.171875 -12.21875 L 5.171875 -12.5625 C 5.515625 -12.53125 5.847656 -12.515625 6.171875 -12.515625 C 6.859375 -12.515625 7.421875 -12.585938 7.859375 -12.734375 Z M 4.5625 -0.265625 C 4.988281 -0.265625 5.367188 -0.425781 5.703125 -0.75 C 6.035156 -1.070312 6.269531 -1.53125 6.40625 -2.125 L 6.40625 -6.96875 C 6.113281 -7.800781 5.503906 -8.21875 4.578125 -8.21875 C 3.910156 -8.21875 3.367188 -7.875 2.953125 -7.1875 C 2.546875 -6.5 2.347656 -5.492188 2.359375 -4.171875 C 2.347656 -2.867188 2.53125 -1.890625 2.90625 -1.234375 C 3.289062 -0.585938 3.84375 -0.265625 4.5625 -0.265625 Z M 4.5625 -0.265625 "/></g></g></g><g fill="#060606" fill-opacity="1"><g transform="translate(86.329235, 20.408564)"><g><path d="M 3.375 -8.59375 C 3.769531 -8.59375 4.117188 -8.53125 4.421875 -8.40625 C 4.722656 -8.289062 4.96875 -8.15625 5.15625 -8 C 5.269531 -7.90625 5.363281 -7.859375 5.4375 -7.859375 C 5.632812 -7.859375 5.753906 -8.097656 5.796875 -8.578125 L 6.171875 -8.578125 C 6.128906 -8.046875 6.109375 -7.125 6.109375 -5.8125 L 5.734375 -5.8125 C 5.617188 -6.53125 5.390625 -7.117188 5.046875 -7.578125 C 4.703125 -8.046875 4.195312 -8.28125 3.53125 -8.28125 C 3.132812 -8.28125 2.8125 -8.171875 2.5625 -7.953125 C 2.3125 -7.734375 2.1875 -7.425781 2.1875 -7.03125 C 2.1875 -6.65625 2.316406 -6.335938 2.578125 -6.078125 C 2.835938 -5.828125 3.253906 -5.523438 3.828125 -5.171875 C 3.929688 -5.117188 4.082031 -5.023438 4.28125 -4.890625 C 4.769531 -4.566406 5.164062 -4.28125 5.46875 -4.03125 C 5.78125 -3.78125 6.03125 -3.492188 6.21875 -3.171875 C 6.40625 -2.847656 6.5 -2.472656 6.5 -2.046875 C 6.5 -1.328125 6.226562 -0.765625 5.6875 -0.359375 C 5.15625 0.0351562 4.5 0.234375 3.71875 0.234375 C 3.226562 0.234375 2.800781 0.15625 2.4375 0 C 2.195312 -0.113281 1.972656 -0.257812 1.765625 -0.4375 C 1.722656 -0.476562 1.675781 -0.5 1.625 -0.5 C 1.550781 -0.5 1.484375 -0.441406 1.421875 -0.328125 C 1.359375 -0.222656 1.3125 -0.078125 1.28125 0.109375 L 0.90625 0.109375 C 0.945312 -0.503906 0.96875 -1.585938 0.96875 -3.140625 L 1.34375 -3.140625 C 1.46875 -2.117188 1.6875 -1.351562 2 -0.84375 C 2.3125 -0.34375 2.847656 -0.09375 3.609375 -0.09375 C 3.984375 -0.09375 4.316406 -0.21875 4.609375 -0.46875 C 4.898438 -0.71875 5.046875 -1.109375 5.046875 -1.640625 C 5.046875 -2.066406 4.898438 -2.425781 4.609375 -2.71875 C 4.328125 -3.007812 3.863281 -3.359375 3.21875 -3.765625 C 2.6875 -4.109375 2.273438 -4.382812 1.984375 -4.59375 C 1.703125 -4.8125 1.460938 -5.078125 1.265625 -5.390625 C 1.066406 -5.703125 0.96875 -6.070312 0.96875 -6.5 C 0.96875 -7.1875 1.195312 -7.707031 1.65625 -8.0625 C 2.113281 -8.414062 2.6875 -8.59375 3.375 -8.59375 Z M 3.375 -8.59375 "/></g></g></g><g clip-path="url(#5d66528ecd)"><path fill="#fbfaf9" d="M 23.667969 21.402344 L 88.46875 21.402344 L 88.46875 27.234375 L 23.667969 27.234375 L 23.667969 21.402344 " fill-opacity="1" fill-rule="nonzero"/></g></svg>